HIERARCHY
ROOT Hips
{
	OFFSET -0.179506 -22.333345 2.821913
	CHANNELS 6 Xposition Yposition Zposition Zrotation Yrotation Xrotation 
	JOINT LeftUpLeg
	{
		OFFSET 6.951974 -9.140623 -0.681533
		CHANNELS 3 Zrotation Yrotation Xrotation
		JOINT LeftLeg
		{
			OFFSET 3.427654 -37.519855 -0.449580
			CHANNELS 3 Zrotation Yrotation Xrotation
			JOINT LeftFoot
			{
				OFFSET -1.359570 -39.796059 -4.369333
				CHANNELS 3 Zrotation Yrotation Xrotation
				JOINT LeftToe
				{
					OFFSET 2.635814 -5.579078 11.928840
					CHANNELS 3 Zrotation Yrotation Xrotation
					End Site
					{
						OFFSET 0.000000 0.000000 0.000000
					}
				}
			}
		}
	}
	JOINT RightUpLeg
	{
		OFFSET -6.767048 -9.052170 -0.431982
		CHANNELS 3 Zrotation Yrotation Xrotation
		JOINT RightLeg
		{
			OFFSET -3.829005 -38.256897 -0.885003
			CHANNELS 3 Zrotation Yrotation Xrotation
			JOINT RightFoot
			{
				OFFSET 1.577377 -39.841461 -4.231180
				CHANNELS 3 Zrotation Yrotation Xrotation
				JOINT RightToe
				{
					OFFSET -2.537174 -4.814398 12.334795
					CHANNELS 3 Zrotation Yrotation Xrotation
					End Site
					{
						OFFSET 0.000000 0.000000 0.000000
					}
				}
			}
		}
	}
	JOINT Spine
	{
		OFFSET -0.253288 10.896323 -2.669631
		CHANNELS 3 Zrotation Yrotation Xrotation
		JOINT Spine1
		{
			OFFSET 0.548704 13.518043 0.109247
			CHANNELS 3 Zrotation Yrotation Xrotation
			JOINT Spine2
			{
				OFFSET 0.145701 5.292222 2.542457
				CHANNELS 3 Zrotation Yrotation Xrotation
				JOINT Neck
				{
					OFFSET -0.277840 21.387037 -4.285703
					CHANNELS 3 Zrotation Yrotation Xrotation
					JOINT Head
					{
						OFFSET 0.515184 6.496960 5.134897
						CHANNELS 3 Zrotation Yrotation Xrotation
						End Site
						{
							OFFSET 0.000000 0.000000 0.000000
						}
					}
				}
				JOINT LeftShoulder
				{
					OFFSET 7.884473 12.174932 -3.408961
					CHANNELS 3 Zrotation Yrotation Xrotation
					JOINT LeftArm
					{
						OFFSET 9.097692 3.046888 -0.886815
						CHANNELS 3 Zrotation Yrotation Xrotation
						JOINT LeftForeArm
						{
							OFFSET 25.961220 -1.277207 -2.745643
							CHANNELS 3 Zrotation Yrotation Xrotation
							JOINT LeftHand
							{
								OFFSET 24.923361 0.898606 -0.117091
								CHANNELS 3 Zrotation Yrotation Xrotation
								End Site
								{
									OFFSET 0.000000 0.000000 0.000000
								}
							}
						}
					}
				}
				JOINT RightShoulder
				{
					OFFSET -8.175920 11.883285 -3.861528
					CHANNELS 3 Zrotation Yrotation Xrotation
					JOINT RightArm
					{
						OFFSET -9.601238 3.255117 -0.914307
						CHANNELS 3 Zrotation Yrotation Xrotation
						JOINT RightForeArm
						{
							OFFSET -25.374195 -1.332924 -2.140099
							CHANNELS 3 Zrotation Yrotation Xrotation
							JOINT RightHand
							{
								OFFSET -25.529810 0.777228 -0.555919
								CHANNELS 3 Zrotation Yrotation Xrotation
								End Site
								{
									OFFSET 0.000000 0.000000 0.000000
								}
							}
						}
					}
				}
			}
		}
	}
}
MOTION
Frames: 7
Frame Time: 0.033333
-34.719658 19.559061 95.415192 174.983498 -0.613024 88.104046 -4.216444 0.632244 11.610245 6.555925 -8.228371 -12.917253 2.926556 16.826329 -8.298481 nan nan nan -1.690566 -3.378646 7.248581 0.829548 3.012395 -10.044977 6.386401 -9.129781 3.648471 nan nan nan -2.060301 2.827905 -7.636735 3.187670 -5.689328 8.770419 0.504105 1.445068 -2.506628 -6.839958 -6.871731 -0.383556 5.305114 1.214526 -0.522335 -16.503036 -17.549725 1.615328 -48.143722 -24.483754 14.920186 9.864412 -44.464464 -14.045571 5.082356 -7.768609 -15.502563 14.595417 19.336404 -1.051843 42.133028 24.601772 6.189665 -13.550075 43.393296 -22.370623 -7.135051 5.534200 -13.132531 
-34.547127 19.682604 95.518883 175.002137 -0.823431 87.957072 -4.374075 -0.134347 11.726784 6.321826 -8.080977 -12.454871 2.914736 17.138670 -7.552397 nan nan nan -1.503575 -2.525986 7.299364 0.395421 2.475283 -9.531018 6.386057 -9.547414 3.223823 nan nan nan -2.763979 2.855069 -8.026103 3.351619 -5.744719 9.221762 0.568876 1.385720 -2.467544 -7.101266 -7.010659 -0.037323 6.046079 1.356471 -0.950611 -16.264692 -17.332513 1.969411 -48.009053 -24.855191 14.533531 9.906086 -44.567936 -15.110984 4.502318 -7.575511 -17.561629 15.061437 19.121012 -1.072661 43.020579 24.968861 6.351378 -14.603293 42.958198 -24.022147 -6.847923 5.048929 -13.785093 
-34.619637 19.621849 95.483681 174.773296 -1.169899 87.908586 -5.037447 -0.423089 11.907799 6.512813 -6.866427 -12.700153 3.098563 16.510986 -6.134882 nan nan nan -2.038016 -1.568652 7.376135 0.924154 1.791396 -9.749973 5.611847 -9.629976 3.426602 nan nan nan -3.132126 3.060751 -7.303066 3.525762 -5.913515 8.117946 0.545604 1.029503 -2.056432 -7.970816 -6.668568 -0.262571 7.370274 1.760918 -0.903296 -15.086695 -16.734988 0.495046 -46.567276 -24.371393 14.332356 11.250067 -42.393180 -35.887107 -1.215108 -16.349261 -56.593020 13.828030 19.876770 -3.989867 47.747000 24.216637 10.787799 -15.470117 44.838112 -41.803359 0.260102 7.064648 -43.454944 
-34.679104 19.548601 95.486855 174.715283 -1.152209 88.072630 -5.098614 -0.499123 11.633081 6.555861 -6.764607 -12.582008 3.116845 16.493243 -5.967000 nan nan nan -2.041083 -1.508993 7.075934 0.999999 1.764314 -9.639885 5.495614 -9.662321 3.399240 nan nan nan -3.023634 3.064837 -7.287141 3.466655 -5.876730 8.049044 0.515194 1.049191 -2.205116 -8.038258 -6.679445 -0.316074 7.565882 1.818510 -0.852590 -15.386430 -16.873914 0.429549 -46.065620 -24.258874 14.407798 10.967298 -42.250707 -35.780367 -0.975096 -16.425868 -57.419762 13.820392 20.032857 -4.160018 47.933270 24.070290 10.944083 -15.681282 45.117056 -43.563286 0.150266 7.395758 -46.115581 
-34.671925 19.459305 95.514244 174.693200 -1.080424 88.344149 -5.094217 -0.923209 11.458215 6.713134 -7.228706 -13.191351 2.368112 14.519684 -0.675830 nan nan nan -1.874298 -1.427344 6.713608 0.994252 1.594597 -9.583487 5.116999 -9.620363 3.337164 nan nan nan -2.971789 3.069116 -7.358321 3.353686 -5.766654 7.845092 0.684298 1.030900 -2.309970 -8.472286 -6.856378 -0.100621 8.009345 1.921711 -0.954722 -15.762756 -17.190704 0.551314 -45.436717 -23.967403 14.140172 10.400382 -42.427800 -35.561767 -0.065707 -16.153554 -57.904469 14.015120 20.016307 -3.903002 47.533440 24.099887 10.645609 -15.128574 45.389099 -43.843838 -0.370040 7.356575 -45.836301 
-34.598381 19.480516 95.575050 174.578095 -1.030952 88.199584 -4.912599 -0.788763 11.716292 6.690497 -7.822994 -13.425673 2.109391 14.629940 -0.635802 nan nan nan -1.700659 -1.338302 6.968338 0.910234 1.668224 -9.809405 5.523947 -9.757063 3.184853 nan nan nan -3.650721 3.043958 -6.931701 3.670708 -5.635795 7.536715 1.035169 0.923526 -2.065700 -8.810728 -7.424856 0.427839 8.359387 2.846742 -2.086275 -15.725060 -16.277091 1.334559 -45.344476 -25.184455 13.088870 9.388802 -42.937468 -33.852078 1.573892 -15.419393 -60.054430 14.799483 18.505611 -2.970504 48.226128 26.366853 9.090103 -14.431284 44.612300 -42.582416 -1.779960 6.043578 -44.472357 
-34.448032 19.487694 95.642685 174.187170 -0.723674 88.190714 -3.773875 1.776625 10.764324 5.833015 -6.397491 -11.964105 0.553610 11.026665 -1.598361 nan nan nan -0.896023 -1.535100 6.707987 0.079532 2.055912 -9.455693 6.386686 -9.572730 2.931889 nan nan nan -3.742635 3.254420 -6.923670 4.127864 -5.421261 8.439089 0.808106 1.200859 -3.393892 -8.661017 -7.460932 1.378965 8.373313 2.741285 -2.567732 -16.216677 -17.324035 2.234441 -44.837682 -24.180272 13.656527 12.101653 -43.967825 -34.277361 2.118185 -11.314600 -64.577057 16.657508 16.792373 -0.976577 43.837749 27.056789 6.634370 -9.795836 44.473515 -28.717304 -6.101976 2.182957 -30.424227 
